<svg width="20" height="20" viewBox="0 0 20 20" fill="none" xmlns="http://www.w3.org/2000/svg">
<path d="M0.785753 18.1942C0.726317 18.3426 0.710594 18.5049 0.74044 18.662C0.770287 18.819 0.844456 18.9643 0.954186 19.0805C1.06392 19.1967 1.20463 19.2792 1.35969 19.318C1.51476 19.3569 1.6777 19.3505 1.82928 19.2997L1.82921 19.2993L5.44121 18.0953C6.75769 18.7245 8.29023 19.0875 10 19.0875C15.9812 19.0875 19.775 14.6399 19.775 10C19.775 5.36047 16.0202 0.9125 10 0.9125C3.97985 0.9125 0.225 5.36047 0.224999 10L0.225001 10.0007C0.233244 11.8883 0.844566 13.7232 1.96855 15.2379L0.785753 18.1942ZM0.785753 18.1942L0.925 18.25M0.785753 18.1942L0.785733 18.1943L0.925 18.25M0.925 18.25C0.876209 18.3718 0.863302 18.5051 0.887803 18.634C0.912303 18.7629 0.973188 18.8821 1.06327 18.9775C1.15334 19.073 1.26885 19.1406 1.39614 19.1725C1.51513 19.2023 1.63977 19.1997 1.75716 19.1652L0.925 18.25ZM5.50027 16.3092L3.01239 17.1393L3.84179 15.0634L3.87308 14.9851L3.82244 14.9177L3.35769 14.2989L3.3573 14.2984C2.41937 13.0608 1.90804 11.5524 1.9 9.9996C1.90022 5.94818 5.24255 2.5875 10 2.5875C14.7576 2.5875 18.1 5.9484 18.1 10C18.1 14.0364 14.733 17.4125 10 17.4125C8.56758 17.4125 7.2592 17.1158 6.11648 16.5613L5.61335 16.3166L5.55832 16.2898L5.50027 16.3092Z" fill="#6A776D" stroke="#6A776D" stroke-width="0.3"/>
</svg>
