<svg width="40" height="40" viewBox="0 0 40 40" fill="none" xmlns="http://www.w3.org/2000/svg">
<path fill-rule="evenodd" clip-rule="evenodd" d="M20 1.42857C30.2567 1.42857 38.5714 9.74328 38.5714 20C38.5714 30.2567 30.2567 38.5714 20 38.5714C9.74328 38.5714 1.42857 30.2567 1.42857 20C1.42857 9.74328 9.74328 1.42857 20 1.42857ZM40 20C40 8.9543 31.0457 0 20 0C8.9543 0 0 8.9543 0 20C0 31.0457 8.9543 40 20 40C31.0457 40 40 31.0457 40 20ZM22.144 8.57255C22.144 8.17806 22.4638 7.85826 22.8583 7.85826C23.2527 7.85826 23.5725 8.17806 23.5725 8.57255C23.5725 8.96703 23.2527 9.28683 22.8583 9.28683C22.4638 9.28683 22.144 8.96703 22.144 8.57255ZM22.8583 6.42969C21.6748 6.42969 20.7154 7.38908 20.7154 8.57255C20.7154 9.75601 21.6748 10.7154 22.8583 10.7154C24.0417 10.7154 25.0011 9.75601 25.0011 8.57255C25.0011 7.38908 24.0417 6.42969 22.8583 6.42969ZM23.2814 15.1284L20.0011 11.8481L14.5942 17.255L19.2868 20.3834V25.7154H20.7154V19.6188L16.8366 17.033L20.0011 13.8684L22.4351 16.3024L25.396 17.7829C25.7488 17.9593 26.1779 17.8163 26.3543 17.4634C26.5307 17.1106 26.3877 16.6815 26.0348 16.5051L23.2814 15.1284ZM7.85826 24.2868C7.85826 22.3144 9.45724 20.7154 11.4297 20.7154C13.4021 20.7154 15.0011 22.3144 15.0011 24.2868C15.0011 26.2593 13.4021 27.8583 11.4297 27.8583C9.45724 27.8583 7.85826 26.2593 7.85826 24.2868ZM11.4297 19.2868C8.66826 19.2868 6.42969 21.5254 6.42969 24.2868C6.42969 27.0483 8.66826 29.2868 11.4297 29.2868C14.1911 29.2868 16.4297 27.0483 16.4297 24.2868C16.4297 21.5254 14.1911 19.2868 11.4297 19.2868ZM25.0011 24.2868C25.0011 22.3144 26.6001 20.7154 28.5725 20.7154C30.545 20.7154 32.144 22.3144 32.144 24.2868C32.144 26.2593 30.545 27.8583 28.5725 27.8583C26.6001 27.8583 25.0011 26.2593 25.0011 24.2868ZM28.5725 19.2868C25.8111 19.2868 23.5725 21.5254 23.5725 24.2868C23.5725 27.0483 25.8111 29.2868 28.5725 29.2868C31.334 29.2868 33.5725 27.0483 33.5725 24.2868C33.5725 21.5254 31.334 19.2868 28.5725 19.2868Z" fill="#102224"/>
</svg>
