<svg width="40" height="41" viewBox="0 0 40 41" fill="none" xmlns="http://www.w3.org/2000/svg">
<g opacity="0.3">
<path d="M16.5517 16.3621C16.5517 15.9812 16.243 15.6724 15.8621 15.6724C15.4812 15.6724 15.1724 15.9812 15.1724 16.3621V17.7414C15.1724 18.1223 15.4812 18.431 15.8621 18.431C16.243 18.431 16.5517 18.1223 16.5517 17.7414V16.3621Z" fill="#102224"/>
<path d="M15.8621 19.8103C16.243 19.8103 16.5517 20.1191 16.5517 20.5V21.8793C16.5517 22.2602 16.243 22.569 15.8621 22.569C15.4812 22.569 15.1724 22.2602 15.1724 21.8793V20.5C15.1724 20.1191 15.4812 19.8103 15.8621 19.8103Z" fill="#102224"/>
<path d="M16.5517 24.6379C16.5517 24.257 16.243 23.9483 15.8621 23.9483C15.4812 23.9483 15.1724 24.257 15.1724 24.6379V26.0172C15.1724 26.3981 15.4812 26.7069 15.8621 26.7069C16.243 26.7069 16.5517 26.3981 16.5517 26.0172V24.6379Z" fill="#102224"/>
<path d="M8.96552 15.6724C9.3464 15.6724 9.65517 15.9812 9.65517 16.3621V17.7414C9.65517 18.1223 9.3464 18.431 8.96552 18.431C8.58463 18.431 8.27586 18.1223 8.27586 17.7414V16.3621C8.27586 15.9812 8.58463 15.6724 8.96552 15.6724Z" fill="#102224"/>
<path d="M13.1034 16.3621C13.1034 15.9812 12.7947 15.6724 12.4138 15.6724C12.0329 15.6724 11.7241 15.9812 11.7241 16.3621V17.7414C11.7241 18.1223 12.0329 18.431 12.4138 18.431C12.7947 18.431 13.1034 18.1223 13.1034 17.7414V16.3621Z" fill="#102224"/>
<path d="M24.1379 15.6724C24.5188 15.6724 24.8276 15.9812 24.8276 16.3621V17.7414C24.8276 18.1223 24.5188 18.431 24.1379 18.431C23.757 18.431 23.4483 18.1223 23.4483 17.7414V16.3621C23.4483 15.9812 23.757 15.6724 24.1379 15.6724Z" fill="#102224"/>
<path d="M24.8276 12.2241C24.8276 11.8433 24.5188 11.5345 24.1379 11.5345C23.757 11.5345 23.4483 11.8433 23.4483 12.2241V13.6034C23.4483 13.9843 23.757 14.2931 24.1379 14.2931C24.5188 14.2931 24.8276 13.9843 24.8276 13.6034V12.2241Z" fill="#102224"/>
<path d="M27.5862 11.5345C27.9671 11.5345 28.2759 11.8433 28.2759 12.2241V13.6034C28.2759 13.9843 27.9671 14.2931 27.5862 14.2931C27.2053 14.2931 26.8966 13.9843 26.8966 13.6034V12.2241C26.8966 11.8433 27.2053 11.5345 27.5862 11.5345Z" fill="#102224"/>
<path d="M28.2759 16.3621C28.2759 15.9812 27.9671 15.6724 27.5862 15.6724C27.2053 15.6724 26.8966 15.9812 26.8966 16.3621V17.7414C26.8966 18.1223 27.2053 18.431 27.5862 18.431C27.9671 18.431 28.2759 18.1223 28.2759 17.7414V16.3621Z" fill="#102224"/>
<path d="M24.1379 19.8103C24.5188 19.8103 24.8276 20.1191 24.8276 20.5V21.8793C24.8276 22.2602 24.5188 22.569 24.1379 22.569C23.757 22.569 23.4483 22.2602 23.4483 21.8793V20.5C23.4483 20.1191 23.757 19.8103 24.1379 19.8103Z" fill="#102224"/>
<path d="M28.2759 20.5C28.2759 20.1191 27.9671 19.8103 27.5862 19.8103C27.2053 19.8103 26.8966 20.1191 26.8966 20.5V21.8793C26.8966 22.2602 27.2053 22.569 27.5862 22.569C27.9671 22.569 28.2759 22.2602 28.2759 21.8793V20.5Z" fill="#102224"/>
<path d="M5.51724 14.2931C5.51724 13.5313 6.13478 12.9138 6.89655 12.9138H17.931C18.6928 12.9138 19.3103 13.5313 19.3103 14.2931V26.0172C19.3103 26.3981 19.0016 26.7069 18.6207 26.7069C18.2398 26.7069 17.931 26.3981 17.931 26.0172V14.2931H6.89655V18.431C6.89655 18.8119 6.58778 19.1207 6.2069 19.1207C5.82601 19.1207 5.51724 18.8119 5.51724 18.431V14.2931Z" fill="#102224"/>
<path d="M22.8486 4.80869C21.9332 4.18151 20.6897 4.83693 20.6897 5.94653V26.0173C20.6897 26.3982 20.9984 26.7069 21.3793 26.7069C21.7602 26.7069 22.069 26.3982 22.069 26.0173V5.94653L33.1034 13.5071V18.7758C33.1034 19.1567 33.4122 19.4655 33.7931 19.4655C34.174 19.4655 34.4828 19.1567 34.4828 18.7758V13.5071C34.4828 13.0522 34.2584 12.6264 33.8831 12.3693L22.8486 4.80869Z" fill="#102224"/>
<path fill-rule="evenodd" clip-rule="evenodd" d="M0 20.5C0 31.5457 8.9543 40.5 20 40.5C31.0457 40.5 40 31.5457 40 20.5C40 9.4543 31.0457 0.5 20 0.5C8.9543 0.5 0 9.4543 0 20.5ZM19.3103 39.1082C15.135 38.9561 11.3105 37.4294 8.27586 34.9671V29.4166C10.6154 29.082 12.4138 27.07 12.4138 24.6379C12.4138 21.9717 10.2524 19.8103 7.58621 19.8103C4.92 19.8103 2.75862 21.9717 2.75862 24.6379C2.75862 27.07 4.55704 29.082 6.89655 29.4166V33.7299C3.48965 30.3553 1.37931 25.6741 1.37931 20.5C1.37931 10.2161 9.71608 1.87931 20 1.87931C30.2839 1.87931 38.6207 10.2161 38.6207 20.5C38.6207 25.6741 36.5103 30.3553 33.1034 33.7299V30.7959C35.443 30.4613 37.2414 28.4493 37.2414 26.0172C37.2414 23.351 35.08 21.1897 32.4138 21.1897C29.7476 21.1897 27.5862 23.351 27.5862 26.0172C27.5862 28.4493 29.3846 30.4613 31.7241 30.7959V34.9671C28.6895 37.4294 24.865 38.9561 20.6897 39.1082V36.3132C23.0292 35.9785 24.8276 33.9665 24.8276 31.5345C24.8276 28.8683 22.6662 26.7069 20 26.7069C17.3338 26.7069 15.1724 28.8683 15.1724 31.5345C15.1724 33.9665 16.9708 35.9785 19.3103 36.3132V39.1082ZM20.6897 34.9138V32.9138C20.6897 32.5329 20.3809 32.2241 20 32.2241C19.6191 32.2241 19.3103 32.5329 19.3103 32.9138V34.9138C17.7364 34.5943 16.5517 33.2027 16.5517 31.5345C16.5517 29.6301 18.0956 28.0862 20 28.0862C21.9044 28.0862 23.4483 29.6301 23.4483 31.5345C23.4483 33.2027 22.2636 34.5943 20.6897 34.9138ZM33.1034 29.3965V27.3966C33.1034 27.0157 32.7947 26.7069 32.4138 26.7069C32.0329 26.7069 31.7241 27.0157 31.7241 27.3966V29.3965C30.1502 29.077 28.9655 27.6855 28.9655 26.0172C28.9655 24.1128 30.5094 22.569 32.4138 22.569C34.3182 22.569 35.8621 24.1128 35.8621 26.0172C35.8621 27.6855 34.6774 29.077 33.1034 29.3965ZM11.0345 24.6379C11.0345 26.3062 9.84982 27.6977 8.27586 28.0172V26.7069C8.27586 26.326 7.96709 26.0172 7.58621 26.0172C7.20532 26.0172 6.89655 26.326 6.89655 26.7069V28.0172C5.32259 27.6977 4.13793 26.3062 4.13793 24.6379C4.13793 22.7335 5.68178 21.1897 7.58621 21.1897C9.49064 21.1897 11.0345 22.7335 11.0345 24.6379Z" fill="#102224"/>
</g>
</svg>
