<svg width="40" height="40" viewBox="0 0 40 40" fill="none" xmlns="http://www.w3.org/2000/svg">
<path d="M16.5517 15.8621C16.5517 15.4812 16.243 15.1724 15.8621 15.1724C15.4812 15.1724 15.1724 15.4812 15.1724 15.8621V17.2414C15.1724 17.6223 15.4812 17.931 15.8621 17.931C16.243 17.931 16.5517 17.6223 16.5517 17.2414V15.8621Z" fill="#31B15C"/>
<path d="M15.8621 19.3103C16.243 19.3103 16.5517 19.6191 16.5517 20V21.3793C16.5517 21.7602 16.243 22.069 15.8621 22.069C15.4812 22.069 15.1724 21.7602 15.1724 21.3793V20C15.1724 19.6191 15.4812 19.3103 15.8621 19.3103Z" fill="#31B15C"/>
<path d="M16.5517 24.1379C16.5517 23.757 16.243 23.4483 15.8621 23.4483C15.4812 23.4483 15.1724 23.757 15.1724 24.1379V25.5172C15.1724 25.8981 15.4812 26.2069 15.8621 26.2069C16.243 26.2069 16.5517 25.8981 16.5517 25.5172V24.1379Z" fill="#31B15C"/>
<path d="M8.96552 15.1724C9.3464 15.1724 9.65517 15.4812 9.65517 15.8621V17.2414C9.65517 17.6223 9.3464 17.931 8.96552 17.931C8.58463 17.931 8.27586 17.6223 8.27586 17.2414V15.8621C8.27586 15.4812 8.58463 15.1724 8.96552 15.1724Z" fill="#31B15C"/>
<path d="M13.1034 15.8621C13.1034 15.4812 12.7947 15.1724 12.4138 15.1724C12.0329 15.1724 11.7241 15.4812 11.7241 15.8621V17.2414C11.7241 17.6223 12.0329 17.931 12.4138 17.931C12.7947 17.931 13.1034 17.6223 13.1034 17.2414V15.8621Z" fill="#31B15C"/>
<path d="M24.1379 15.1724C24.5188 15.1724 24.8276 15.4812 24.8276 15.8621V17.2414C24.8276 17.6223 24.5188 17.931 24.1379 17.931C23.757 17.931 23.4483 17.6223 23.4483 17.2414V15.8621C23.4483 15.4812 23.757 15.1724 24.1379 15.1724Z" fill="#31B15C"/>
<path d="M24.8276 11.7241C24.8276 11.3433 24.5188 11.0345 24.1379 11.0345C23.757 11.0345 23.4483 11.3433 23.4483 11.7241V13.1034C23.4483 13.4843 23.757 13.7931 24.1379 13.7931C24.5188 13.7931 24.8276 13.4843 24.8276 13.1034V11.7241Z" fill="#31B15C"/>
<path d="M27.5862 11.0345C27.9671 11.0345 28.2759 11.3433 28.2759 11.7241V13.1034C28.2759 13.4843 27.9671 13.7931 27.5862 13.7931C27.2053 13.7931 26.8966 13.4843 26.8966 13.1034V11.7241C26.8966 11.3433 27.2053 11.0345 27.5862 11.0345Z" fill="#31B15C"/>
<path d="M28.2759 15.8621C28.2759 15.4812 27.9671 15.1724 27.5862 15.1724C27.2053 15.1724 26.8966 15.4812 26.8966 15.8621V17.2414C26.8966 17.6223 27.2053 17.931 27.5862 17.931C27.9671 17.931 28.2759 17.6223 28.2759 17.2414V15.8621Z" fill="#31B15C"/>
<path d="M24.1379 19.3103C24.5188 19.3103 24.8276 19.6191 24.8276 20V21.3793C24.8276 21.7602 24.5188 22.069 24.1379 22.069C23.757 22.069 23.4483 21.7602 23.4483 21.3793V20C23.4483 19.6191 23.757 19.3103 24.1379 19.3103Z" fill="#31B15C"/>
<path d="M28.2759 20C28.2759 19.6191 27.9671 19.3103 27.5862 19.3103C27.2053 19.3103 26.8966 19.6191 26.8966 20V21.3793C26.8966 21.7602 27.2053 22.069 27.5862 22.069C27.9671 22.069 28.2759 21.7602 28.2759 21.3793V20Z" fill="#31B15C"/>
<path d="M5.51724 13.7931C5.51724 13.0313 6.13478 12.4138 6.89655 12.4138H17.931C18.6928 12.4138 19.3103 13.0313 19.3103 13.7931V25.5172C19.3103 25.8981 19.0016 26.2069 18.6207 26.2069C18.2398 26.2069 17.931 25.8981 17.931 25.5172V13.7931H6.89655V17.931C6.89655 18.3119 6.58778 18.6207 6.2069 18.6207C5.82601 18.6207 5.51724 18.3119 5.51724 17.931V13.7931Z" fill="#31B15C"/>
<path d="M22.8486 4.30869C21.9332 3.68151 20.6897 4.33693 20.6897 5.44653V25.5173C20.6897 25.8982 20.9984 26.2069 21.3793 26.2069C21.7602 26.2069 22.069 25.8982 22.069 25.5173V5.44653L33.1034 13.0071V18.2758C33.1034 18.6567 33.4122 18.9655 33.7931 18.9655C34.174 18.9655 34.4828 18.6567 34.4828 18.2758V13.0071C34.4828 12.5522 34.2584 12.1264 33.8831 11.8693L22.8486 4.30869Z" fill="#31B15C"/>
<path fill-rule="evenodd" clip-rule="evenodd" d="M0 20C0 31.0457 8.9543 40 20 40C31.0457 40 40 31.0457 40 20C40 8.9543 31.0457 0 20 0C8.9543 0 0 8.9543 0 20ZM19.3103 38.6082C15.135 38.4561 11.3105 36.9294 8.27586 34.4671V28.9166C10.6154 28.582 12.4138 26.57 12.4138 24.1379C12.4138 21.4717 10.2524 19.3103 7.58621 19.3103C4.92 19.3103 2.75862 21.4717 2.75862 24.1379C2.75862 26.57 4.55704 28.582 6.89655 28.9166V33.2299C3.48965 29.8553 1.37931 25.1741 1.37931 20C1.37931 9.71608 9.71608 1.37931 20 1.37931C30.2839 1.37931 38.6207 9.71608 38.6207 20C38.6207 25.1741 36.5103 29.8553 33.1034 33.2299V30.2959C35.443 29.9613 37.2414 27.9493 37.2414 25.5172C37.2414 22.851 35.08 20.6897 32.4138 20.6897C29.7476 20.6897 27.5862 22.851 27.5862 25.5172C27.5862 27.9493 29.3846 29.9613 31.7241 30.2959V34.4671C28.6895 36.9294 24.865 38.4561 20.6897 38.6082V35.8132C23.0292 35.4785 24.8276 33.4665 24.8276 31.0345C24.8276 28.3683 22.6662 26.2069 20 26.2069C17.3338 26.2069 15.1724 28.3683 15.1724 31.0345C15.1724 33.4665 16.9708 35.4785 19.3103 35.8132V38.6082ZM20.6897 34.4138V32.4138C20.6897 32.0329 20.3809 31.7241 20 31.7241C19.6191 31.7241 19.3103 32.0329 19.3103 32.4138V34.4138C17.7364 34.0943 16.5517 32.7027 16.5517 31.0345C16.5517 29.1301 18.0956 27.5862 20 27.5862C21.9044 27.5862 23.4483 29.1301 23.4483 31.0345C23.4483 32.7027 22.2636 34.0943 20.6897 34.4138ZM33.1034 28.8965V26.8966C33.1034 26.5157 32.7947 26.2069 32.4138 26.2069C32.0329 26.2069 31.7241 26.5157 31.7241 26.8966V28.8965C30.1502 28.577 28.9655 27.1855 28.9655 25.5172C28.9655 23.6128 30.5094 22.069 32.4138 22.069C34.3182 22.069 35.8621 23.6128 35.8621 25.5172C35.8621 27.1855 34.6774 28.577 33.1034 28.8965ZM11.0345 24.1379C11.0345 25.8062 9.84982 27.1977 8.27586 27.5172V26.2069C8.27586 25.826 7.96709 25.5172 7.58621 25.5172C7.20532 25.5172 6.89655 25.826 6.89655 26.2069V27.5172C5.32259 27.1977 4.13793 25.8062 4.13793 24.1379C4.13793 22.2335 5.68178 20.6897 7.58621 20.6897C9.49064 20.6897 11.0345 22.2335 11.0345 24.1379Z" fill="#31B15C"/>
</svg>
