<svg width="40" height="40" viewBox="0 0 40 40" fill="none" xmlns="http://www.w3.org/2000/svg">
<path fill-rule="evenodd" clip-rule="evenodd" d="M25.4623 18.7522C25.2573 19.3912 25.1548 20.0663 25.1548 20.7776C25.1548 21.4888 25.2573 22.1639 25.4623 22.8029C25.6672 23.4418 25.9686 23.9903 26.3664 24.4484C27.1982 25.3888 28.3556 25.8589 29.8384 25.8589C31.3212 25.8589 32.4785 25.3888 33.3104 24.4484C33.6961 23.9903 33.9915 23.4418 34.1964 22.8029C34.4014 22.1639 34.5038 21.4888 34.5038 20.7776C34.5038 20.0663 34.4014 19.3912 34.1964 18.7522C33.9915 18.1133 33.6961 17.5648 33.3104 17.1067C32.4785 16.1543 31.3212 15.6781 29.8384 15.6781C28.3676 15.6781 27.2103 16.1543 26.3664 17.1067C25.9686 17.5648 25.6672 18.1133 25.4623 18.7522ZM26.493 20.7776C26.493 20.2953 26.5533 19.8011 26.6738 19.2947C26.8064 18.7884 27.0054 18.3424 27.2706 17.9566C27.5478 17.5708 27.8975 17.2634 28.3194 17.0343C28.7413 16.8053 29.2477 16.6908 29.8384 16.6908C30.4291 16.6908 30.9354 16.8053 31.3574 17.0343C31.7793 17.2634 32.1289 17.5708 32.4062 17.9566C32.6835 18.3424 32.8824 18.7884 33.0029 19.2947C33.1235 19.8011 33.1838 20.2953 33.1838 20.7776C33.1838 21.2598 33.1235 21.754 33.0029 22.2604C32.8824 22.7667 32.6835 23.2128 32.4062 23.5985C32.1289 23.9723 31.7793 24.2797 31.3574 24.5208C30.9354 24.7498 30.4291 24.8644 29.8384 24.8644C29.2477 24.8644 28.7413 24.7498 28.3194 24.5208C27.8975 24.2797 27.5478 23.9723 27.2706 23.5985C27.0054 23.2128 26.8064 22.7667 26.6738 22.2604C26.5533 21.754 26.493 21.2598 26.493 20.7776Z" fill="#9F9F9F"/>
<path fill-rule="evenodd" clip-rule="evenodd" d="M16.0071 16.3653C16.0071 16.2085 16.0493 16.082 16.1337 15.9855C16.2905 15.8408 16.4532 15.7685 16.622 15.7685H19.6238C21.2151 15.7685 22.282 16.2025 22.8245 17.0705C23.0415 17.396 23.15 17.83 23.15 18.3725C23.15 18.915 22.9692 19.3731 22.6075 19.7468C22.2579 20.1205 21.7576 20.3797 21.1066 20.5244V20.5606C21.7455 20.657 22.1976 20.8921 22.4628 21.2658C22.6678 21.5913 22.8004 22.0072 22.8607 22.5135C22.9933 23.6347 23.0777 24.4967 23.1138 25.0994C23.1138 25.3044 23.0475 25.4611 22.9149 25.5696C22.7944 25.666 22.6557 25.7143 22.499 25.7143C22.3423 25.7143 22.1976 25.6721 22.065 25.5877C21.9324 25.4912 21.8601 25.3466 21.848 25.1537C21.7877 24.5871 21.7395 24.0928 21.7034 23.6709C21.6672 23.2369 21.625 22.8692 21.5768 22.5678C21.5285 22.2664 21.4622 22.0253 21.3779 21.8445C21.3055 21.6516 21.197 21.5009 21.0524 21.3924C20.7751 21.1995 20.2868 21.1031 19.5876 21.1031H17.2368V25.1356C17.2368 25.4129 17.1102 25.5937 16.8571 25.6781C16.7727 25.7022 16.6702 25.7143 16.5496 25.7143C16.4411 25.7143 16.3206 25.666 16.188 25.5696C16.0674 25.4732 16.0071 25.3285 16.0071 25.1356V16.3653ZM19.0632 20.1266C20.2446 20.1266 21.0282 19.9397 21.414 19.566C21.7034 19.3008 21.848 18.921 21.848 18.4267C21.848 17.7155 21.5888 17.2393 21.0704 16.9982C20.7088 16.8294 20.1904 16.745 19.5153 16.745H17.2368V20.1266H19.0632Z" fill="#9F9F9F"/>
<path fill-rule="evenodd" clip-rule="evenodd" d="M8.31805 25.1356V21.3562H10.1445C11.784 21.3562 12.9232 20.9825 13.5622 20.2351C13.96 19.777 14.1589 19.2164 14.1589 18.5533C14.1589 17.8903 13.96 17.3357 13.5622 16.8897C12.8991 16.1422 11.778 15.7685 10.1987 15.7685H7.70322C7.52239 15.7685 7.35362 15.8408 7.1969 15.9855C7.11251 16.082 7.07031 16.2085 7.07031 16.3653V25.1356C7.07031 25.3285 7.13662 25.4732 7.26923 25.5696C7.40184 25.666 7.52239 25.7143 7.63089 25.7143C7.75145 25.7143 7.84789 25.7022 7.92022 25.6781C8.18544 25.5937 8.31805 25.4129 8.31805 25.1356ZM12.1155 20C11.7297 20.2531 11.1511 20.3797 10.3795 20.3797H8.31805V16.745H10.3976C11.133 16.745 11.7056 16.8776 12.1155 17.1428C12.6098 17.4442 12.8569 17.9144 12.8569 18.5533C12.8569 19.2043 12.6098 19.6865 12.1155 20Z" fill="#9F9F9F"/>
<path fill-rule="evenodd" clip-rule="evenodd" d="M40 20C40 8.9543 31.0457 0 20 0C8.95431 0 0 8.9543 0 20C0 31.0457 8.95431 40 20 40C31.0457 40 40 31.0457 40 20ZM20 1.42857C30.2567 1.42857 38.5714 9.74329 38.5714 20C38.5714 30.2567 30.2567 38.5714 20 38.5714C9.74328 38.5714 1.42857 30.2567 1.42857 20C1.42857 9.74329 9.74328 1.42857 20 1.42857Z" fill="#9F9F9F"/>
</svg>
