<svg width="40" height="40" viewBox="0 0 40 40" fill="none" xmlns="http://www.w3.org/2000/svg">
<path fill-rule="evenodd" clip-rule="evenodd" d="M38.5714 20C38.5714 9.74329 30.2567 1.42857 20 1.42857C9.74328 1.42857 1.42857 9.74329 1.42857 20C1.42857 30.2567 9.74328 38.5714 20 38.5714C30.2567 38.5714 38.5714 30.2567 38.5714 20ZM20 0C31.0457 0 40 8.9543 40 20C40 31.0457 31.0457 40 20 40C8.9543 40 0 31.0457 0 20C0 8.9543 8.9543 0 20 0Z" fill="#9F9F9F"/>
<path d="M20.002 23C21.6588 23 23.002 21.6569 23.002 20C23.002 18.3431 21.6588 17 20.002 17C18.3451 17 17.002 18.3431 17.002 20C17.002 21.6569 18.3451 23 20.002 23Z" stroke="#9F9F9F" stroke-width="1.5" stroke-linecap="round" stroke-linejoin="round"/>
<path d="M27.402 23C27.2688 23.3016 27.2291 23.6362 27.2879 23.9606C27.3468 24.285 27.5014 24.5843 27.732 24.82L27.792 24.88C27.9779 25.0657 28.1254 25.2863 28.2261 25.5291C28.3267 25.7719 28.3785 26.0322 28.3785 26.295C28.3785 26.5578 28.3267 26.8181 28.2261 27.0609C28.1254 27.3037 27.9779 27.5243 27.792 27.71C27.6062 27.896 27.3856 28.0435 27.1428 28.1441C26.9 28.2448 26.6398 28.2966 26.377 28.2966C26.1141 28.2966 25.8539 28.2448 25.6111 28.1441C25.3683 28.0435 25.1477 27.896 24.962 27.71L24.902 27.65C24.6663 27.4195 24.3669 27.2648 24.0425 27.206C23.7181 27.1472 23.3836 27.1869 23.082 27.32C22.7862 27.4468 22.5339 27.6572 22.3563 27.9255C22.1786 28.1938 22.0832 28.5082 22.082 28.83V29C22.082 29.5304 21.8712 30.0391 21.4962 30.4142C21.1211 30.7893 20.6124 31 20.082 31C19.5515 31 19.0428 30.7893 18.6677 30.4142C18.2927 30.0391 18.082 29.5304 18.082 29V28.91C18.0742 28.579 17.9671 28.258 17.7745 27.9887C17.5819 27.7194 17.3127 27.5143 17.002 27.4C16.7003 27.2669 16.3658 27.2272 16.0414 27.286C15.717 27.3448 15.4176 27.4995 15.182 27.73L15.122 27.79C14.9362 27.976 14.7156 28.1235 14.4728 28.2241C14.23 28.3248 13.9698 28.3766 13.707 28.3766C13.4441 28.3766 13.1839 28.3248 12.9411 28.2241C12.6983 28.1235 12.4777 27.976 12.292 27.79C12.106 27.6043 11.9585 27.3837 11.8578 27.1409C11.7572 26.8981 11.7054 26.6378 11.7054 26.375C11.7054 26.1122 11.7572 25.8519 11.8578 25.6091C11.9585 25.3663 12.106 25.1457 12.292 24.96L12.352 24.9C12.5825 24.6643 12.7371 24.365 12.796 24.0406C12.8548 23.7162 12.8151 23.3816 12.682 23.08C12.5552 22.7842 12.3447 22.532 12.0764 22.3543C11.8081 22.1766 11.4937 22.0813 11.172 22.08H11.002C10.4715 22.08 9.96281 21.8693 9.58774 21.4942C9.21267 21.1191 9.00195 20.6104 9.00195 20.08C9.00195 19.5496 9.21267 19.0409 9.58774 18.6658C9.96281 18.2907 10.4715 18.08 11.002 18.08H11.092C11.4229 18.0723 11.744 17.9651 12.0133 17.7725C12.2825 17.5799 12.4877 17.3107 12.602 17C12.7351 16.6984 12.7748 16.3638 12.716 16.0394C12.6571 15.715 12.5025 15.4157 12.272 15.18L12.212 15.12C12.026 14.9343 11.8785 14.7137 11.7778 14.4709C11.6772 14.2281 11.6254 13.9678 11.6254 13.705C11.6254 13.4422 11.6772 13.1819 11.7778 12.9391C11.8785 12.6963 12.026 12.4757 12.212 12.29C12.3977 12.104 12.6183 11.9565 12.8611 11.8559C13.1039 11.7552 13.3641 11.7034 13.627 11.7034C13.8898 11.7034 14.15 11.7552 14.3928 11.8559C14.6356 11.9565 14.8562 12.104 15.042 12.29L15.102 12.35C15.3376 12.5805 15.637 12.7352 15.9614 12.794C16.2858 12.8528 16.6203 12.8131 16.922 12.68H17.002C17.2977 12.5532 17.55 12.3428 17.7276 12.0745C17.9053 11.8062 18.0007 11.4918 18.002 11.17V11C18.002 10.4696 18.2127 9.96086 18.5877 9.58579C18.9628 9.21071 19.4715 9 20.002 9C20.5324 9 21.0411 9.21071 21.4162 9.58579C21.7912 9.96086 22.002 10.4696 22.002 11V11.09C22.0032 11.4118 22.0986 11.7262 22.2763 11.9945C22.4539 12.2628 22.7062 12.4732 23.002 12.6C23.3036 12.7331 23.6381 12.7728 23.9625 12.714C24.2869 12.6552 24.5863 12.5005 24.822 12.27L24.882 12.21C25.0677 12.024 25.2883 11.8765 25.5311 11.7759C25.7739 11.6752 26.0341 11.6234 26.297 11.6234C26.5598 11.6234 26.82 11.6752 27.0628 11.7759C27.3056 11.8765 27.5262 12.024 27.712 12.21C27.8979 12.3957 28.0454 12.6163 28.1461 12.8591C28.2467 13.1019 28.2985 13.3622 28.2985 13.625C28.2985 13.8878 28.2467 14.1481 28.1461 14.3909C28.0454 14.6337 27.8979 14.8543 27.712 15.04L27.652 15.1C27.4214 15.3357 27.2668 15.635 27.2079 15.9594C27.1491 16.2838 27.1888 16.6184 27.322 16.92V17C27.4487 17.2958 27.6592 17.548 27.9275 17.7257C28.1958 17.9034 28.5102 17.9987 28.832 18H29.002C29.5324 18 30.0411 18.2107 30.4162 18.5858C30.7912 18.9609 31.002 19.4696 31.002 20C31.002 20.5304 30.7912 21.0391 30.4162 21.4142C30.0411 21.7893 29.5324 22 29.002 22H28.912C28.5902 22.0013 28.2758 22.0966 28.0075 22.2743C27.7392 22.452 27.5287 22.7042 27.402 23Z" stroke="#9F9F9F" stroke-width="1.5" stroke-linecap="round" stroke-linejoin="round"/>
</svg>
