<svg width="40" height="41" viewBox="0 0 40 41" fill="none" xmlns="http://www.w3.org/2000/svg">
<path opacity="0.3" fill-rule="evenodd" clip-rule="evenodd" d="M40 20.5C40 9.4543 31.0457 0.5 20 0.5C8.9543 0.5 0 9.4543 0 20.5C0 31.5457 8.9543 40.5 20 40.5C31.0457 40.5 40 31.5457 40 20.5ZM26.315 3.02983C33.463 5.61411 38.5714 12.4605 38.5714 20.5C38.5714 30.7567 30.2567 39.0714 20 39.0714C9.74328 39.0714 1.42857 30.7567 1.42857 20.5C1.42857 10.2433 9.74328 1.92857 20 1.92857C21.6427 1.92857 23.2356 2.14185 24.7525 2.54222L13.4206 12.615C12.552 13.3871 12.9198 14.8182 14.0531 15.0757L27.1872 18.0607L14.9578 30.9015L14.8431 26.1988C14.8335 25.8044 14.506 25.4925 14.1116 25.5021C13.7173 25.5118 13.4054 25.8393 13.415 26.2336L13.5717 32.6603C13.5814 33.0547 13.9089 33.3666 14.3032 33.3569L20.7299 33.2002C21.1243 33.1906 21.4362 32.8631 21.4265 32.4687C21.4169 32.0743 21.0894 31.7624 20.6951 31.772L15.9923 31.8867L28.2216 19.046C28.9862 18.2432 28.5848 16.9134 27.5038 16.6677L14.3697 13.6827L26.1889 3.17673C26.2386 3.13259 26.2806 3.08306 26.315 3.02983Z" fill="#102224"/>
</svg>
