<svg width="40" height="40" viewBox="0 0 40 40" fill="none" xmlns="http://www.w3.org/2000/svg">
    <path fill-rule="evenodd" clip-rule="evenodd"
        d="M40 20C40 8.9543 31.0457 0 20 0C8.9543 0 0 8.9543 0 20C0 31.0457 8.9543 40 20 40C31.0457 40 40 31.0457 40 20ZM26.315 2.52983C33.463 5.11411 38.5714 11.9605 38.5714 20C38.5714 30.2567 30.2567 38.5714 20 38.5714C9.74328 38.5714 1.42857 30.2567 1.42857 20C1.42857 9.74329 9.74328 1.42857 20 1.42857C21.6427 1.42857 23.2356 1.64185 24.7525 2.04222L13.4206 12.115C12.552 12.8871 12.9198 14.3182 14.0531 14.5757L27.1872 17.5607L14.9578 30.4015L14.8431 25.6988C14.8335 25.3044 14.506 24.9925 14.1116 25.0021C13.7173 25.0118 13.4054 25.3393 13.415 25.7336L13.5717 32.1603C13.5814 32.5547 13.9089 32.8666 14.3032 32.8569L20.7299 32.7002C21.1243 32.6906 21.4362 32.3631 21.4265 31.9687C21.4169 31.5743 21.0894 31.2624 20.6951 31.272L15.9923 31.3867L28.2216 18.546C28.9862 17.7432 28.5848 16.4134 27.5038 16.1677L14.3697 13.1827L26.1889 2.67673C26.2386 2.63259 26.2806 2.58306 26.315 2.52983Z"
        fill="black" />
</svg>