<svg width="40" height="40" viewBox="0 0 40 40" fill="none" xmlns="http://www.w3.org/2000/svg">
<path fill-rule="evenodd" clip-rule="evenodd" d="M14.1069 7.70377C14.5919 7.26281 15.3148 7.20856 15.8602 7.57218L19.2421 9.82674C19.7648 10.1752 19.9985 10.8242 19.818 11.4259L17.9954 17.501L24.9478 21.1915C25.1633 21.3059 25.3459 21.4736 25.4783 21.6785L29.8889 28.5109C30.5026 29.4615 29.8202 30.7143 28.6887 30.7143H7.85714C7.06816 30.7143 6.42857 30.0747 6.42857 29.2857V15.316C6.42857 14.9135 6.59836 14.5297 6.89618 14.2589L14.1069 7.70377ZM18.4497 11.0154L15.0678 8.76082L7.85714 15.316V29.2857H28.6887L24.2781 22.4533L17.3256 18.7628C16.7237 18.4434 16.4313 17.7432 16.6271 17.0905L18.4497 11.0154Z" fill="black"/>
<path fill-rule="evenodd" clip-rule="evenodd" d="M27.8328 11.6893C27.3742 11.4601 26.828 11.4941 26.4015 11.7785L23.1314 13.9585C22.4182 14.434 22.2813 15.4261 22.8391 16.0769L26.1513 19.9411C26.6522 20.5254 27.5259 20.6079 28.1274 20.1277L30.8442 17.9584C31.076 17.7733 31.2444 17.5207 31.3261 17.2355L31.9515 15.0528C32.141 14.3915 31.8323 13.6891 31.2171 13.3815L27.8328 11.6893ZM27.1939 12.9671L30.5782 14.6593L29.9528 16.842L27.236 19.0114L23.9238 15.1472L27.1939 12.9671Z" fill="black"/>
<path fill-rule="evenodd" clip-rule="evenodd" d="M31.4153 19.5311C32.0665 18.4892 33.642 18.701 33.9951 19.8778L35.3236 24.3063C35.642 25.3675 34.6836 26.3714 33.6088 26.1027L30.066 25.217C29.1248 24.9817 28.6869 23.8967 29.2011 23.074L31.4153 19.5311ZM32.6268 20.2883L30.4125 23.8311L33.9553 24.7168L32.6268 20.2883Z" fill="black"/>
<path fill-rule="evenodd" clip-rule="evenodd" d="M21.3878 5.71429C20.2259 5.71429 19.55 7.02767 20.2254 7.9732L22.4999 11.1576C23.013 11.876 24.0484 11.9616 24.6726 11.3374L27.857 8.15301C28.7569 7.25306 28.1196 5.71429 26.8468 5.71429H21.3878ZM21.3878 7.14286H26.8468L23.6624 10.3273L21.3878 7.14286Z" fill="black"/>
<path fill-rule="evenodd" clip-rule="evenodd" d="M20 0C31.0457 0 40 8.9543 40 20C40 31.0457 31.0457 40 20 40C8.9543 40 0 31.0457 0 20C0 8.9543 8.9543 0 20 0ZM38.5714 20C38.5714 9.74329 30.2567 1.42857 20 1.42857C9.74328 1.42857 1.42857 9.74329 1.42857 20C1.42857 30.2567 9.74328 38.5714 20 38.5714C30.2567 38.5714 38.5714 30.2567 38.5714 20Z" fill="black"/>
</svg>
