<svg width="40" height="41" viewBox="0 0 40 41" fill="none" xmlns="http://www.w3.org/2000/svg">
<g opacity="0.3">
<path fill-rule="evenodd" clip-rule="evenodd" d="M14.1069 8.20377C14.5919 7.76281 15.3148 7.70856 15.8602 8.07218L19.2421 10.3267C19.7648 10.6752 19.9985 11.3242 19.818 11.9259L17.9954 18.001L24.9478 21.6915C25.1633 21.8059 25.3459 21.9736 25.4783 22.1785L29.8889 29.0109C30.5026 29.9615 29.8202 31.2143 28.6887 31.2143H7.85714C7.06816 31.2143 6.42857 30.5747 6.42857 29.7857V15.816C6.42857 15.4135 6.59836 15.0297 6.89618 14.7589L14.1069 8.20377ZM18.4497 11.5154L15.0678 9.26082L7.85714 15.816V29.7857H28.6887L24.2781 22.9533L17.3256 19.2628C16.7237 18.9434 16.4313 18.2432 16.6271 17.5905L18.4497 11.5154Z" fill="#102224"/>
<path fill-rule="evenodd" clip-rule="evenodd" d="M27.8328 12.1893C27.3742 11.9601 26.828 11.9941 26.4015 12.2785L23.1314 14.4585C22.4182 14.934 22.2813 15.9261 22.8391 16.5769L26.1513 20.4411C26.6522 21.0254 27.5259 21.1079 28.1274 20.6277L30.8442 18.4584C31.076 18.2733 31.2444 18.0207 31.3261 17.7355L31.9515 15.5528C32.141 14.8915 31.8323 14.1891 31.2171 13.8815L27.8328 12.1893ZM27.1939 13.4671L30.5782 15.1593L29.9528 17.342L27.236 19.5114L23.9238 15.6472L27.1939 13.4671Z" fill="#102224"/>
<path fill-rule="evenodd" clip-rule="evenodd" d="M31.4153 20.0311C32.0665 18.9892 33.642 19.201 33.9951 20.3778L35.3236 24.8063C35.642 25.8675 34.6836 26.8714 33.6088 26.6027L30.066 25.717C29.1248 25.4817 28.6869 24.3967 29.2011 23.574L31.4153 20.0311ZM32.6268 20.7883L30.4125 24.3311L33.9553 25.2168L32.6268 20.7883Z" fill="#102224"/>
<path fill-rule="evenodd" clip-rule="evenodd" d="M21.3878 6.21429C20.2259 6.21429 19.55 7.52767 20.2254 8.4732L22.4999 11.6576C23.013 12.376 24.0484 12.4616 24.6726 11.8374L27.857 8.65301C28.7569 7.75306 28.1196 6.21429 26.8468 6.21429H21.3878ZM21.3878 7.64286H26.8468L23.6624 10.8273L21.3878 7.64286Z" fill="#102224"/>
<path fill-rule="evenodd" clip-rule="evenodd" d="M20 0.5C31.0457 0.5 40 9.4543 40 20.5C40 31.5457 31.0457 40.5 20 40.5C8.9543 40.5 0 31.5457 0 20.5C0 9.4543 8.9543 0.5 20 0.5ZM38.5714 20.5C38.5714 10.2433 30.2567 1.92857 20 1.92857C9.74328 1.92857 1.42857 10.2433 1.42857 20.5C1.42857 30.7567 9.74328 39.0714 20 39.0714C30.2567 39.0714 38.5714 30.7567 38.5714 20.5Z" fill="#102224"/>
</g>
</svg>
