<svg width="40" height="40" viewBox="0 0 40 40" fill="none" xmlns="http://www.w3.org/2000/svg">
<path fill-rule="evenodd" clip-rule="evenodd" d="M12.1429 17.8571C12.1429 15.4902 14.0616 13.5714 16.4286 13.5714C18.7955 13.5714 20.7143 15.4902 20.7143 17.8571C20.7143 20.2241 18.7955 22.1429 16.4286 22.1429C14.0616 22.1429 12.1429 20.2241 12.1429 17.8571ZM16.4286 15C14.8506 15 13.5714 16.2792 13.5714 17.8571C13.5714 19.4351 14.8506 20.7143 16.4286 20.7143C18.0065 20.7143 19.2857 19.4351 19.2857 17.8571C19.2857 16.2792 18.0065 15 16.4286 15Z" fill="#31B15C"/>
<path fill-rule="evenodd" clip-rule="evenodd" d="M40 19.9976C39.9987 8.953 31.0449 0 20 0C8.9543 0 0 8.9543 0 20C0 31.0457 8.9543 40 20 40C31.0442 40 39.9975 31.0482 40 20.0046V19.9976ZM38.4962 18.3169C37.6457 8.84891 29.6894 1.42857 20 1.42857C9.74328 1.42857 1.42857 9.74328 1.42857 20C1.42857 21.2438 1.55085 22.4591 1.78403 23.6344L4.72125 20.6972C5.26559 20.1528 6.14336 20.1377 6.70614 20.663L16.3657 29.6786L30.4039 12.9665C30.9254 12.3456 31.8587 12.2828 32.4587 12.8283L38.4962 18.3169ZM38.5688 20.3136L31.4977 13.8853L17.4304 30.6322L21.8934 34.4577C22.1929 34.7144 22.2276 35.1653 21.9709 35.4649C21.7142 35.7644 21.2632 35.7991 20.9637 35.5423L15.9637 31.2566L15.9504 31.2449L15.9412 31.2365L5.7314 21.7073L2.18278 25.2559C4.44976 32.953 11.5688 38.5714 20 38.5714C30.152 38.5714 38.4014 30.4257 38.5688 20.3136Z" fill="#31B15C"/>
</svg>
