<svg width="40" height="41" viewBox="0 0 40 41" fill="none" xmlns="http://www.w3.org/2000/svg">
<g opacity="0.3">
<path fill-rule="evenodd" clip-rule="evenodd" d="M12.1429 18.3571C12.1429 15.9902 14.0616 14.0714 16.4286 14.0714C18.7955 14.0714 20.7143 15.9902 20.7143 18.3571C20.7143 20.7241 18.7955 22.6429 16.4286 22.6429C14.0616 22.6429 12.1429 20.7241 12.1429 18.3571ZM16.4286 15.5C14.8506 15.5 13.5714 16.7792 13.5714 18.3571C13.5714 19.9351 14.8506 21.2143 16.4286 21.2143C18.0065 21.2143 19.2857 19.9351 19.2857 18.3571C19.2857 16.7792 18.0065 15.5 16.4286 15.5Z" fill="#102224"/>
<path fill-rule="evenodd" clip-rule="evenodd" d="M40 20.4976C39.9987 9.453 31.0449 0.5 20 0.5C8.9543 0.5 0 9.4543 0 20.5C0 31.5457 8.9543 40.5 20 40.5C31.0442 40.5 39.9975 31.5482 40 20.5046V20.4976ZM38.4962 18.8169C37.6457 9.34891 29.6894 1.92857 20 1.92857C9.74328 1.92857 1.42857 10.2433 1.42857 20.5C1.42857 21.7438 1.55085 22.9591 1.78403 24.1344L4.72125 21.1972C5.26559 20.6528 6.14336 20.6377 6.70614 21.163L16.3657 30.1786L30.4039 13.4665C30.9254 12.8456 31.8587 12.7828 32.4587 13.3283L38.4962 18.8169ZM38.5688 20.8136L31.4977 14.3853L17.4304 31.1322L21.8934 34.9577C22.1929 35.2144 22.2276 35.6653 21.9709 35.9649C21.7142 36.2644 21.2632 36.2991 20.9637 36.0423L15.9637 31.7566L15.9504 31.7449L15.9412 31.7365L5.7314 22.2073L2.18278 25.7559C4.44976 33.453 11.5688 39.0714 20 39.0714C30.152 39.0714 38.4014 30.9257 38.5688 20.8136Z" fill="#102224"/>
</g>
</svg>
