<svg width="40" height="40" viewBox="0 0 40 40" fill="none" xmlns="http://www.w3.org/2000/svg">
<path d="M20.7143 25C20.7143 24.6055 20.3945 24.2857 20 24.2857C19.6055 24.2857 19.2857 24.6055 19.2857 25V36.4286C19.2857 36.8231 19.6055 37.1429 20 37.1429C20.3945 37.1429 20.7143 36.8231 20.7143 36.4286V25Z" fill="#31B15C"/>
<path d="M20 10.7143C20.3945 10.7143 20.7143 11.0341 20.7143 11.4286V18.5714C20.7143 18.9659 20.3945 19.2857 20 19.2857C19.6055 19.2857 19.2857 18.9659 19.2857 18.5714V11.4286C19.2857 11.0341 19.6055 10.7143 20 10.7143Z" fill="#31B15C"/>
<path d="M20.7143 2.85714C20.7143 2.46265 20.3945 2.14286 20 2.14286C19.6055 2.14286 19.2857 2.46265 19.2857 2.85714V5C19.2857 5.39449 19.6055 5.71429 20 5.71429C20.3945 5.71429 20.7143 5.39449 20.7143 5V2.85714Z" fill="#31B15C"/>
<path fill-rule="evenodd" clip-rule="evenodd" d="M40 20C40 8.9543 31.0457 0 20 0C8.9543 0 0 8.9543 0 20C0 31.0457 8.9543 40 20 40C31.0457 40 40 31.0457 40 20ZM20 1.42857C20.5526 1.42857 21.0996 1.45271 21.6399 1.49998L34.5489 31.5436C31.1468 35.8257 25.894 38.5714 20 38.5714C13.8246 38.5714 8.35319 35.5573 4.97665 30.92L18.3547 1.50046C18.8968 1.45287 19.4456 1.42857 20 1.42857ZM35.5247 30.196L23.2888 1.71888C31.9768 3.27143 38.5714 10.8656 38.5714 20C38.5714 23.7655 37.4508 27.2693 35.5247 30.196ZM16.6838 1.7238C8.00936 3.28741 1.42857 10.8752 1.42857 20C1.42857 23.4771 2.38412 26.7309 4.04695 29.5134L16.6838 1.7238Z" fill="#31B15C"/>
</svg>
