<svg width="40" height="41" viewBox="0 0 40 41" fill="none" xmlns="http://www.w3.org/2000/svg">
<g opacity="0.3">
<path d="M20.7143 25.5C20.7143 25.1055 20.3945 24.7857 20 24.7857C19.6055 24.7857 19.2857 25.1055 19.2857 25.5V36.9286C19.2857 37.3231 19.6055 37.6429 20 37.6429C20.3945 37.6429 20.7143 37.3231 20.7143 36.9286V25.5Z" fill="#102224"/>
<path d="M20 11.2143C20.3945 11.2143 20.7143 11.5341 20.7143 11.9286V19.0714C20.7143 19.4659 20.3945 19.7857 20 19.7857C19.6055 19.7857 19.2857 19.4659 19.2857 19.0714V11.9286C19.2857 11.5341 19.6055 11.2143 20 11.2143Z" fill="#102224"/>
<path d="M20.7143 3.35714C20.7143 2.96265 20.3945 2.64286 20 2.64286C19.6055 2.64286 19.2857 2.96265 19.2857 3.35714V5.5C19.2857 5.89449 19.6055 6.21429 20 6.21429C20.3945 6.21429 20.7143 5.89449 20.7143 5.5V3.35714Z" fill="#102224"/>
<path fill-rule="evenodd" clip-rule="evenodd" d="M40 20.5C40 9.4543 31.0457 0.5 20 0.5C8.9543 0.5 0 9.4543 0 20.5C0 31.5457 8.9543 40.5 20 40.5C31.0457 40.5 40 31.5457 40 20.5ZM20 1.92857C20.5526 1.92857 21.0996 1.95271 21.6399 1.99998L34.5489 32.0436C31.1468 36.3257 25.894 39.0714 20 39.0714C13.8246 39.0714 8.35319 36.0573 4.97665 31.42L18.3547 2.00046C18.8968 1.95287 19.4456 1.92857 20 1.92857ZM35.5247 30.696L23.2888 2.21888C31.9768 3.77143 38.5714 11.3656 38.5714 20.5C38.5714 24.2655 37.4508 27.7693 35.5247 30.696ZM16.6838 2.2238C8.00936 3.78741 1.42857 11.3752 1.42857 20.5C1.42857 23.9771 2.38412 27.2309 4.04695 30.0134L16.6838 2.2238Z" fill="#102224"/>
</g>
</svg>
