<svg width="22" height="22" viewBox="0 0 22 22" fill="none" xmlns="http://www.w3.org/2000/svg">
<path fill-rule="evenodd" clip-rule="evenodd" d="M7.07143 9.92857C7.07143 8.7451 8.03082 7.78571 9.21429 7.78571C10.3978 7.78571 11.3571 8.7451 11.3571 9.92857C11.3571 11.112 10.3978 12.0714 9.21429 12.0714C8.03082 12.0714 7.07143 11.112 7.07143 9.92857ZM9.21429 8.5C8.42531 8.5 7.78571 9.13959 7.78571 9.92857C7.78571 10.7176 8.42531 11.3571 9.21429 11.3571C10.0033 11.3571 10.6429 10.7176 10.6429 9.92857C10.6429 9.13959 10.0033 8.5 9.21429 8.5Z" fill="#31B15C"/>
<path fill-rule="evenodd" clip-rule="evenodd" d="M21 10.9988C20.9993 5.4765 16.5224 1 11 1C5.47715 1 1 5.47715 1 11C1 16.5228 5.47715 21 11 21C16.5221 21 20.9988 16.5241 21 11.0023V10.9988ZM20.2481 10.1585C19.8228 5.42445 15.8447 1.71429 11 1.71429C5.87164 1.71429 1.71429 5.87164 1.71429 11C1.71429 11.6219 1.77542 12.2295 1.89202 12.8172L3.36062 11.3486C3.6328 11.0764 4.07168 11.0688 4.35307 11.3315L9.18286 15.8393L16.2019 7.48325C16.4627 7.17279 16.9293 7.1414 17.2293 7.41414L20.2481 10.1585ZM20.2844 11.1568L16.7489 7.94267L9.71519 16.3161L11.9467 18.2288C12.0965 18.3572 12.1138 18.5827 11.9854 18.7324C11.8571 18.8822 11.6316 18.8995 11.4819 18.7712L8.98186 16.6283L8.97522 16.6225L8.9706 16.6182L3.8657 11.8537L2.09139 13.628C3.22488 17.4765 6.78438 20.2857 11 20.2857C16.076 20.2857 20.2007 16.2128 20.2844 11.1568Z" fill="#31B15C"/>
<path fill-rule="evenodd" clip-rule="evenodd" d="M7.07143 9.92857C7.07143 8.7451 8.03082 7.78571 9.21429 7.78571C10.3978 7.78571 11.3571 8.7451 11.3571 9.92857C11.3571 11.112 10.3978 12.0714 9.21429 12.0714C8.03082 12.0714 7.07143 11.112 7.07143 9.92857ZM9.21429 8.5C8.42531 8.5 7.78571 9.13959 7.78571 9.92857C7.78571 10.7176 8.42531 11.3571 9.21429 11.3571C10.0033 11.3571 10.6429 10.7176 10.6429 9.92857C10.6429 9.13959 10.0033 8.5 9.21429 8.5Z" stroke="#31B15C" stroke-linecap="round" stroke-linejoin="round"/>
<path fill-rule="evenodd" clip-rule="evenodd" d="M21 10.9988C20.9993 5.4765 16.5224 1 11 1C5.47715 1 1 5.47715 1 11C1 16.5228 5.47715 21 11 21C16.5221 21 20.9988 16.5241 21 11.0023V10.9988ZM20.2481 10.1585C19.8228 5.42445 15.8447 1.71429 11 1.71429C5.87164 1.71429 1.71429 5.87164 1.71429 11C1.71429 11.6219 1.77542 12.2295 1.89202 12.8172L3.36062 11.3486C3.6328 11.0764 4.07168 11.0688 4.35307 11.3315L9.18286 15.8393L16.2019 7.48325C16.4627 7.17279 16.9293 7.1414 17.2293 7.41414L20.2481 10.1585ZM20.2844 11.1568L16.7489 7.94267L9.71519 16.3161L11.9467 18.2288C12.0965 18.3572 12.1138 18.5827 11.9854 18.7324C11.8571 18.8822 11.6316 18.8995 11.4819 18.7712L8.98186 16.6283L8.97522 16.6225L8.9706 16.6182L3.8657 11.8537L2.09139 13.628C3.22488 17.4765 6.78438 20.2857 11 20.2857C16.076 20.2857 20.2007 16.2128 20.2844 11.1568Z" stroke="#31B15C" stroke-linecap="round" stroke-linejoin="round"/>
</svg>
