<svg width="18" height="24" viewBox="0 0 18 24" fill="none" xmlns="http://www.w3.org/2000/svg">
<path d="M13.4059 0.0466663C13.3588 -0.00795845 11.6627 0.0682287 10.1867 1.73141C8.71063 3.39315 8.93771 5.29926 8.97094 5.34814C9.00417 5.39701 11.0756 5.4732 12.3979 3.53977C13.7202 1.60635 13.453 0.102728 13.4059 0.0466663ZM17.9946 16.9128C17.9281 16.7748 14.7753 15.1389 15.0689 11.9937C15.3624 8.84843 17.3881 7.9845 17.42 7.89106C17.4518 7.79763 16.5934 6.75544 15.6837 6.22788C15.0156 5.85629 14.2764 5.64322 13.5195 5.60401C13.3699 5.5997 12.8507 5.46745 11.7831 5.77076C11.0797 5.97057 9.49433 6.61745 9.05818 6.64332C8.62063 6.6692 7.31907 5.89295 5.91921 5.68739C5.02335 5.5077 4.07349 5.8757 3.39364 6.15889C2.71517 6.44063 1.42469 7.24275 0.521904 9.37456C-0.380877 11.5049 0.0912831 14.8802 0.429134 15.9295C0.766985 16.9789 1.29453 18.6953 2.19177 19.9488C2.98932 21.3632 4.04718 22.3451 4.48888 22.6785C4.93058 23.012 6.17675 23.2334 7.04076 22.7749C7.73585 22.3321 8.99033 22.0777 9.48603 22.0964C9.98034 22.1151 10.9551 22.3177 11.9534 22.8712C12.7441 23.1544 13.4918 23.0365 14.2409 22.7202C14.9899 22.4026 16.0741 21.1979 17.3397 18.7556C17.8197 17.62 18.038 17.0057 17.9946 16.9128Z" fill="black"/>
</svg>
