<svg width="24" height="24" viewBox="0 0 24 24" fill="none" xmlns="http://www.w3.org/2000/svg">
<rect width="24" height="24" rx="12" fill="#31B15C"/>
<path fill-rule="evenodd" clip-rule="evenodd" d="M17.3972 11.2095C15.8352 11.2095 14.5689 12.4758 14.5689 14.0378C14.5689 15.5998 15.8352 16.8661 17.3972 16.8661C18.9592 16.8661 20.2255 15.5998 20.2255 14.0378C20.2255 12.4758 18.9592 11.2095 17.3972 11.2095ZM14.0547 14.0378C14.0547 12.1918 15.5512 10.6953 17.3972 10.6953C19.2432 10.6953 20.7397 12.1918 20.7397 14.0378C20.7397 15.8838 19.2432 17.3803 17.3972 17.3803C15.5512 17.3803 14.0547 15.8838 14.0547 14.0378Z" fill="white"/>
<path fill-rule="evenodd" clip-rule="evenodd" d="M12.0002 13.0104C11.5742 13.0104 11.2288 13.3558 11.2288 13.7818C11.2288 14.2078 11.5742 14.5531 12.0002 14.5531C12.4262 14.5531 12.7715 14.2078 12.7715 13.7818C12.7715 13.3558 12.4262 13.0104 12.0002 13.0104ZM10.7146 13.7818C10.7146 13.0718 11.2902 12.4962 12.0002 12.4962C12.7102 12.4962 13.2858 13.0718 13.2858 13.7818C13.2858 14.4918 12.7102 15.0674 12.0002 15.0674C11.2902 15.0674 10.7146 14.4918 10.7146 13.7818Z" fill="white"/>
<path fill-rule="evenodd" clip-rule="evenodd" d="M6.60032 11.2095C5.03831 11.2095 3.77204 12.4758 3.77204 14.0378C3.77204 15.5998 5.03831 16.8661 6.60032 16.8661C8.16234 16.8661 9.4286 15.5998 9.4286 14.0378C9.4286 12.4758 8.16234 11.2095 6.60032 11.2095ZM3.25781 14.0378C3.25781 12.1918 4.7543 10.6953 6.60032 10.6953C8.44634 10.6953 9.94283 12.1918 9.94283 14.0378C9.94283 15.8838 8.44634 17.3803 6.60032 17.3803C4.7543 17.3803 3.25781 15.8838 3.25781 14.0378Z" fill="white"/>
<path fill-rule="evenodd" clip-rule="evenodd" d="M17.3001 6.64461C17.7178 6.5054 18.1059 6.92117 17.9382 7.32825L17.2522 8.99427C17.1982 9.12557 17.0479 9.18819 16.9166 9.13412C16.7853 9.08005 16.7227 8.92978 16.7767 8.79847L17.4627 7.13246L15.9128 7.64911L17.6481 13.9706C17.6857 14.1076 17.6052 14.249 17.4682 14.2866C17.3313 14.3242 17.1898 14.2437 17.1522 14.1068L15.4169 7.78524C15.3446 7.52173 15.4909 7.24767 15.7502 7.16127L17.3001 6.64461Z" fill="white"/>
<path fill-rule="evenodd" clip-rule="evenodd" d="M10.7833 10.2779C10.8732 10.3878 10.857 10.5498 10.7471 10.6397L7.06213 13.6547H10.8414C10.9834 13.6547 11.0985 13.7698 11.0985 13.9118C11.0985 14.0538 10.9834 14.1689 10.8414 14.1689H7.06213C6.57886 14.1689 6.36247 13.5627 6.7365 13.2567L10.4214 10.2417C10.5313 10.1518 10.6933 10.168 10.7833 10.2779Z" fill="white"/>
<path fill-rule="evenodd" clip-rule="evenodd" d="M9.17188 7.86649C9.17188 7.72449 9.28699 7.60938 9.42899 7.60938H11.6145C11.7565 7.60938 11.8716 7.72449 11.8716 7.86649C11.8716 8.00849 11.7565 8.12361 11.6145 8.12361H10.5875L11.2273 14.0095C11.2426 14.1507 11.1406 14.2775 10.9995 14.2929C10.8583 14.3082 10.7314 14.2062 10.7161 14.0651L10.0733 8.15139C10.0723 8.14206 10.0718 8.13279 10.0718 8.12361H9.42899C9.28699 8.12361 9.17188 8.00849 9.17188 7.86649Z" fill="white"/>
<path fill-rule="evenodd" clip-rule="evenodd" d="M10.1992 9.28055C10.1992 9.13855 10.3143 9.02344 10.4563 9.02344H15.4546C15.9519 9.02344 16.1596 9.65903 15.7583 9.95267L11.1224 13.3448C11.0078 13.4286 10.8469 13.4037 10.7631 13.2891C10.6792 13.1745 10.7041 13.0136 10.8187 12.9298L15.4546 9.53767H10.4563C10.3143 9.53767 10.1992 9.42255 10.1992 9.28055Z" fill="white"/>
</svg>
