<svg width="56" height="56" viewBox="0 0 56 56" fill="none" xmlns="http://www.w3.org/2000/svg">
<mask id="mask0_1_601" style="mask-type:luminance" maskUnits="userSpaceOnUse" x="0" y="0" width="56" height="56">
<path d="M27.8333 53.6667C42.1011 53.6667 53.6667 42.1011 53.6667 27.8333C53.6667 13.5656 42.1011 2 27.8333 2C13.5656 2 2 13.5656 2 27.8333C2 42.1011 13.5656 53.6667 27.8333 53.6667Z" fill="white" stroke="white" stroke-width="4" stroke-linejoin="round"/>
<path d="M27.8093 31.6278L28.9116 32.73L26.8645 34.7771H33.3206V36.3517H26.8645L28.9116 38.3987L27.8093 39.501L23.8727 35.5644L27.8093 31.6278ZM20.9297 33.4567L27.2204 27.166L28.3344 28.2793L22.0437 34.57L20.9297 33.4567Z" fill="black"/>
<path d="M33.3232 32.4144H31.7485V28.4778C31.7485 28.2416 31.8272 28.0841 31.9847 27.9267L35.2127 24.6987C36.5512 23.3602 37.2598 21.5494 37.2598 19.6598V18.2426H35.7638C33.8743 18.2426 32.0634 18.9512 30.725 20.2896L27.497 23.5177C27.4182 23.6751 27.2608 23.7539 27.0246 23.7539H21.1197L19.0726 26.352L23.2454 26.9819L23.0092 28.5565L17.498 27.7692C17.1831 27.6905 16.9469 27.533 16.8681 27.2968C16.7894 27.0606 16.7894 26.7457 16.9469 26.5095L20.0961 22.5729C20.2536 22.258 20.4898 22.1792 20.726 22.1792H26.7096L29.7015 19.1874C31.2761 17.534 33.4806 16.668 35.7638 16.668H37.2598C38.1258 16.668 38.8344 17.3766 38.8344 18.2426V19.7385C38.8344 22.0218 37.9683 24.2263 36.315 25.8796L33.3232 28.7927V32.4144Z" fill="black"/>
</mask>
<g mask="url(#mask0_1_601)">
<path d="M-3.16406 -3.16602H58.8359V58.834H-3.16406V-3.16602Z" fill="#102224"/>
</g>
</svg>
