<svg width="8" height="8" viewBox="0 0 8 8" fill="none" xmlns="http://www.w3.org/2000/svg">
<path fill-rule="evenodd" clip-rule="evenodd" d="M0.153382 0.153382C0.357891 -0.0511273 0.689467 -0.0511273 0.893976 0.153382L4 3.25941L7.10602 0.153382C7.31053 -0.0511273 7.64211 -0.0511273 7.84662 0.153382C8.05113 0.357891 8.05113 0.689467 7.84662 0.893976L4.74059 4L7.84662 7.10602C8.05113 7.31053 8.05113 7.64211 7.84662 7.84662C7.64211 8.05113 7.31053 8.05113 7.10602 7.84662L4 4.74059L0.893976 7.84662C0.689467 8.05113 0.357891 8.05113 0.153382 7.84662C-0.0511273 7.64211 -0.0511273 7.31053 0.153382 7.10602L3.25941 4L0.153382 0.893976C-0.0511273 0.689467 -0.0511273 0.357891 0.153382 0.153382Z" fill="#B42727"/>
</svg>
