<svg width="15" height="20" viewBox="0 0 15 14" fill="none" xmlns="http://www.w3.org/2000/svg">
<path d="M8.73963 4.71835L9.4424 5.38779L2.52157 11.9803H1.81879V11.3109L8.73963 4.71835ZM11.4896 0.337891C11.2987 0.337891 11.1 0.410656 10.9549 0.548909L9.55699 1.88051L12.4216 4.6092L13.8195 3.2776C13.8903 3.21028 13.9465 3.13032 13.9848 3.04229C14.0232 2.95427 14.0429 2.85991 14.0429 2.76461C14.0429 2.66931 14.0232 2.57494 13.9848 2.48692C13.9465 2.39889 13.8903 2.31893 13.8195 2.25161L12.032 0.548909C11.8792 0.403379 11.6882 0.337891 11.4896 0.337891ZM8.73963 2.6591L0.291016 10.7069V13.4356H3.1556L11.6042 5.38779L8.73963 2.6591Z" fill="#31B15C"/>
</svg>
