<svg width="98" height="98" viewBox="0 0 98 98" fill="none" xmlns="http://www.w3.org/2000/svg">
<mask id="mask0_1_618" style="mask-type:luminance" maskUnits="userSpaceOnUse" x="6" y="6" width="86" height="86">
<path d="M48.8333 89.6667C71.3856 89.6667 89.6667 71.3856 89.6667 48.8333C89.6667 26.2811 71.3856 8 48.8333 8C26.2811 8 8 26.2811 8 48.8333C8 71.3856 26.2811 89.6667 48.8333 89.6667Z" fill="white" stroke="white" stroke-width="4" stroke-linejoin="round"/>
</mask>
<g mask="url(#mask0_1_618)">
<path d="M-0.166016 -0.167969H97.834V97.832H-0.166016V-0.167969Z" fill="#102224"/>
</g>
<path fill-rule="evenodd" clip-rule="evenodd" d="M33.2345 39.918C34.2194 39.918 35.0178 40.7164 35.0178 41.7013V63.1014H63.5513V41.7013C63.5513 40.7164 64.3497 39.918 65.3346 39.918C66.3195 39.918 67.1179 40.7164 67.1179 41.7013V64.8847C67.1179 65.8696 66.3195 66.668 65.3346 66.668H33.2345C32.2496 66.668 31.4512 65.8696 31.4512 64.8847V41.7013C31.4512 40.7164 32.2496 39.918 33.2345 39.918Z" fill="#31B15C"/>
<path fill-rule="evenodd" clip-rule="evenodd" d="M28 32.7833C28 31.7984 28.7984 31 29.7833 31H69.0168C70.0017 31 70.8001 31.7984 70.8001 32.7833V41.7C70.8001 42.6849 70.0017 43.4834 69.0168 43.4834H29.7833C28.7984 43.4834 28 42.6849 28 41.7V32.7833ZM31.5667 34.5667V39.9167H67.2334V34.5667H31.5667Z" fill="#31B15C"/>
<path d="M45.9492 48.832H53.0826" stroke="#31B15C" stroke-width="2" stroke-linecap="round" stroke-linejoin="round"/>
</svg>
