<svg width="46" height="46" viewBox="0 0 46 46" fill="none" xmlns="http://www.w3.org/2000/svg">
<path fill-rule="evenodd" clip-rule="evenodd" d="M23 1.64286C34.7952 1.64286 44.3571 11.2048 44.3571 23C44.3571 34.7952 34.7952 44.3571 23 44.3571C11.2048 44.3571 1.64286 34.7952 1.64286 23C1.64286 11.2048 11.2048 1.64286 23 1.64286ZM46 23C46 10.2974 35.7026 0 23 0C10.2974 0 0 10.2974 0 23C0 35.7026 10.2974 46 23 46C35.7026 46 46 35.7026 46 23ZM20.6992 15.9492C21.4172 15.9492 21.9992 16.5312 21.9992 17.2492C21.9992 17.9672 21.4172 18.5492 20.6992 18.5492C19.9812 18.5492 19.3992 17.9672 19.3992 17.2492C19.3992 16.5312 19.9812 15.9492 20.6992 15.9492ZM23.845 16.2492C23.4214 14.9155 22.1732 13.9492 20.6992 13.9492C19.2254 13.9492 17.9772 14.9154 17.5535 16.249H13.7988C13.2465 16.249 12.7988 16.6967 12.7988 17.249C12.7988 17.8013 13.2465 18.249 13.7988 18.249H17.5534C17.9769 19.5828 19.2252 20.5492 20.6992 20.5492C22.1732 20.5492 23.4214 19.5829 23.845 18.2492H32.1992C32.7515 18.2492 33.1992 17.8015 33.1992 17.2492C33.1992 16.6969 32.7515 16.2492 32.1992 16.2492H23.845ZM26.4492 25.4492C27.9232 25.4492 29.1714 26.4155 29.595 27.7492H32.1992C32.7515 27.7492 33.1992 28.1969 33.1992 28.7492C33.1992 29.3015 32.7515 29.7492 32.1992 29.7492H29.595C29.1714 31.0829 27.9232 32.0492 26.4492 32.0492C24.9594 32.0492 23.7002 31.0619 23.29 29.706C23.1979 29.734 23.1001 29.749 22.9988 29.749L13.7988 29.749C13.2465 29.749 12.7988 29.3013 12.7988 28.749C12.7988 28.1967 13.2465 27.749 13.7988 27.749L22.9988 27.749C23.1002 27.749 23.198 27.7641 23.2902 27.7921C23.7004 26.4363 24.9595 25.4492 26.4492 25.4492ZM27.7492 28.7492C27.7492 28.0312 27.1672 27.4492 26.4492 27.4492C25.7312 27.4492 25.1492 28.0312 25.1492 28.7492C25.1492 29.4672 25.7312 30.0492 26.4492 30.0492C27.1672 30.0492 27.7492 29.4672 27.7492 28.7492Z" fill="#102224"/>
</svg>
