<svg width="20" height="21" viewBox="0 0 20 21" fill="none" xmlns="http://www.w3.org/2000/svg">
<path d="M19.8055 8.07666H19V8.03516H10V12.0352H15.6515C14.827 14.3637 12.6115 16.0352 10 16.0352C6.6865 16.0352 4 13.3487 4 10.0352C4 6.72166 6.6865 4.03516 10 4.03516C11.5295 4.03516 12.921 4.61216 13.9805 5.55466L16.809 2.72616C15.023 1.06166 12.634 0.0351562 10 0.0351562C4.4775 0.0351562 0 4.51266 0 10.0352C0 15.5577 4.4775 20.0352 10 20.0352C15.5225 20.0352 20 15.5577 20 10.0352C20 9.36466 19.931 8.71016 19.8055 8.07666Z" fill="#FFC107"/>
<path d="M1.15234 5.38066L4.43784 7.79016C5.32684 5.58916 7.47984 4.03516 9.99934 4.03516C11.5288 4.03516 12.9203 4.61216 13.9798 5.55466L16.8083 2.72616C15.0223 1.06166 12.6333 0.0351562 9.99934 0.0351562C6.15834 0.0351562 2.82734 2.20366 1.15234 5.38066Z" fill="#FF3D00"/>
<path d="M10.0002 20.0355C12.5832 20.0355 14.9302 19.047 16.7047 17.4395L13.6097 14.8205C12.5721 15.61 11.3039 16.0369 10.0002 16.0355C7.39916 16.0355 5.19066 14.377 4.35866 12.0625L1.09766 14.575C2.75266 17.8135 6.11366 20.0355 10.0002 20.0355Z" fill="#4CAF50"/>
<path d="M19.8055 8.07666H19V8.03516H10V12.0352H15.6515C15.2571 13.1434 14.5467 14.1117 13.608 14.8207L13.6095 14.8197L16.7045 17.4387C16.4855 17.6377 20 15.0352 20 10.0352C20 9.36466 19.931 8.71016 19.8055 8.07666Z" fill="#1976D2"/>
</svg>
