<svg width="15" height="13" viewBox="0 0 15 13" fill="none" xmlns="http://www.w3.org/2000/svg">
<path fill-rule="evenodd" clip-rule="evenodd" d="M0 2C0 1.37868 0.503681 0.875 1.125 0.875C1.74632 0.875 2.25 1.37868 2.25 2C2.25 2.62132 1.74632 3.125 1.125 3.125C0.503681 3.125 0 2.62132 0 2ZM3.75 2.00046C3.75002 1.58625 4.08583 1.25048 4.50004 1.2505L14.25 1.25104C14.6643 1.25107 15 1.58687 15 2.00108C15 2.4153 14.6642 2.75107 14.25 2.75104L4.49996 2.7505C4.08574 2.75048 3.74998 2.41467 3.75 2.00046ZM0 6.5C0 5.87875 0.503642 5.375 1.125 5.375C1.74636 5.375 2.25 5.87875 2.25 6.5C2.25 7.12125 1.74636 7.625 1.125 7.625C0.503642 7.625 0 7.12125 0 6.5ZM3.75 6.50048C3.75003 6.08627 4.08583 5.7505 4.50005 5.75052L14.25 5.75112C14.6643 5.75115 15 6.08696 15 6.50117C15 6.91538 14.6642 7.25115 14.25 7.25113L4.49995 7.25052C4.08574 7.2505 3.74997 6.91469 3.75 6.50048ZM0 11C0 10.3788 0.503642 9.875 1.125 9.875C1.74636 9.875 2.25 10.3788 2.25 11C2.25 11.6213 1.74636 12.125 1.125 12.125C0.503642 12.125 0 11.6213 0 11ZM3.75 11.0005C3.75003 10.5863 4.08583 10.2505 4.50005 10.2505L14.25 10.2511C14.6643 10.2512 15 10.587 15 11.0012C15 11.4154 14.6642 11.7512 14.25 11.7511L4.49995 11.7505C4.08574 11.7505 3.74997 11.4147 3.75 11.0005Z" fill="#102224"/>
</svg>
