<svg width="20" height="20" viewBox="0 0 20 20" fill="none" xmlns="http://www.w3.org/2000/svg">
<path fill-rule="evenodd" clip-rule="evenodd" d="M10 1.66797C5.85787 1.66797 2.5 5.02584 2.5 9.16797C2.5 11.4213 3.67382 13.3809 4.97993 14.8741C6.29551 16.378 7.831 17.5076 8.74492 18.1156C9.50917 18.6241 10.4908 18.6241 11.2551 18.1156C12.169 17.5076 13.7045 16.378 15.0201 14.8741C16.3262 13.3809 17.5 11.4213 17.5 9.16797C17.5 5.02584 14.1422 1.66797 10 1.66797ZM8.33333 9.16797C8.33333 8.24749 9.0795 7.5013 10 7.5013C10.9205 7.5013 11.6667 8.24749 11.6667 9.16797C11.6667 10.0885 10.9205 10.8346 10 10.8346C9.0795 10.8346 8.33333 10.0885 8.33333 9.16797ZM10 5.83464C8.15905 5.83464 6.66667 7.32702 6.66667 9.16797C6.66667 11.0089 8.15905 12.5013 10 12.5013C11.8409 12.5013 13.3333 11.0089 13.3333 9.16797C13.3333 7.32702 11.8409 5.83464 10 5.83464Z" fill="#31B15C"/>
</svg>
