<svg width="18" height="19" viewBox="0 0 18 19" fill="none" xmlns="http://www.w3.org/2000/svg">
<path d="M1.8272 4.36076C1.5 4.7332 1.5 5.37178 1.5 6.64891V13.6939C1.5 14.5984 1.5 15.0506 1.73595 15.3911C1.97189 15.7315 2.38441 15.8746 3.20943 16.1606L4.18007 16.4971C4.70577 16.6794 5.11028 16.8196 5.44975 16.9099C5.6712 16.9688 5.875 16.795 5.875 16.5658V5.20319C5.875 5.0165 5.73723 4.85895 5.55628 4.81305C5.26435 4.739 4.91345 4.61734 4.43251 4.45061C3.26757 4.04674 2.6851 3.84481 2.24191 4.04988C2.08456 4.12268 1.94337 4.22852 1.8272 4.36076Z" fill="#102224"/>
<path d="M9.4653 3.11021L8.3133 3.90896C7.89653 4.19793 7.59113 4.40969 7.33031 4.56068C7.20671 4.63223 7.125 4.76168 7.125 4.9045V16.1897C7.125 16.4677 7.41299 16.6411 7.64715 16.4914C7.8984 16.3306 8.18617 16.1311 8.5347 15.8894L9.6867 15.0907C10.1034 14.8018 10.4089 14.59 10.6696 14.439C10.7933 14.3674 10.875 14.238 10.875 14.0952V2.80997C10.875 2.53203 10.587 2.35849 10.3528 2.50827C10.1016 2.66903 9.81383 2.86855 9.4653 3.11021Z" fill="#102224"/>
<path d="M14.7906 2.83899L13.8199 2.50249C13.2942 2.32022 12.8897 2.18 12.5502 2.0897C12.3288 2.03079 12.125 2.20462 12.125 2.43377V13.7964C12.125 13.9831 12.2628 14.1406 12.4437 14.1865C12.7357 14.2606 13.0866 14.3822 13.5675 14.5489C14.7324 14.9528 15.3149 15.1548 15.7581 14.9497C15.9154 14.8769 16.0566 14.7711 16.1727 14.6388C16.5 14.2664 16.5 13.6278 16.5 12.3507V5.3057C16.5 4.40122 16.5 3.94897 16.264 3.60851C16.0281 3.26803 15.6156 3.12502 14.7906 2.83899Z" fill="#102224"/>
</svg>
