<svg width="61" height="16" viewBox="0 0 61 16" fill="none" xmlns="http://www.w3.org/2000/svg">
<g clip-path="url(#clip0_1_967)">
<path d="M19.2991 3.19922C19.1749 3.19922 19.0694 3.28939 19.0499 3.41217L17.6122 12.5299C17.607 12.5632 17.609 12.5973 17.6182 12.6297C17.6274 12.6622 17.6435 12.6922 17.6654 12.7178C17.6873 12.7435 17.7145 12.764 17.7451 12.7781C17.7758 12.7923 17.8091 12.7996 17.8428 12.7996H19.5478C19.6719 12.7996 19.7775 12.7092 19.797 12.5866L20.2193 9.90911C20.2386 9.7865 20.3442 9.69615 20.4684 9.69615H22.0186C23.8299 9.69615 25.3674 8.3746 25.6483 6.58383C25.9314 4.77792 24.5206 3.20314 22.521 3.19922H19.2991ZM20.9565 5.23466H22.1968C23.2179 5.23466 23.5505 5.83716 23.4453 6.50346C23.3402 7.17119 22.8238 7.66303 21.836 7.66303H20.5736L20.9565 5.23466ZM29.1161 5.85445C28.6856 5.85605 28.1902 5.94426 27.634 6.17593C26.3582 6.70768 25.7456 7.80666 25.4854 8.60786C25.4854 8.60786 24.6573 11.0523 26.5282 12.3952C26.5282 12.3952 28.2634 13.6881 30.2167 12.3156L30.183 12.5299C30.1778 12.5632 30.1798 12.5972 30.189 12.6296C30.1982 12.6621 30.2142 12.6921 30.2361 12.7177C30.258 12.7433 30.2851 12.7639 30.3157 12.778C30.3463 12.7922 30.3796 12.7995 30.4132 12.7996H32.0319C32.1561 12.7996 32.2616 12.7092 32.281 12.5866L33.2656 6.34272C33.2709 6.30942 33.2689 6.27537 33.2597 6.24291C33.2506 6.21046 33.2345 6.18037 33.2126 6.15471C33.1907 6.12906 33.1636 6.10844 33.133 6.09429C33.1024 6.08015 33.0691 6.07279 33.0353 6.07275H31.4167C31.2925 6.07275 31.1868 6.16309 31.1676 6.2857L31.1147 6.62179C31.1147 6.62179 30.4079 5.84964 29.1161 5.85445ZM29.169 7.82662C29.3549 7.82662 29.5249 7.85228 29.6774 7.90129C30.3758 8.12547 30.7718 8.7964 30.6572 9.52365C30.5159 10.4191 29.7815 11.0785 28.8397 11.0785C28.654 11.0785 28.484 11.053 28.3313 11.004C27.6331 10.7798 27.2346 10.1089 27.3492 9.38162C27.4905 8.48615 28.2272 7.82662 29.169 7.82662Z" fill="#003087"/>
<path d="M42.6077 3.19946C42.4835 3.19946 42.378 3.28963 42.3585 3.41242L40.9208 12.5302C40.9156 12.5635 40.9176 12.5975 40.9268 12.63C40.936 12.6624 40.9521 12.6925 40.974 12.7181C40.9959 12.7437 41.0231 12.7643 41.0537 12.7784C41.0844 12.7925 41.1177 12.7998 41.1514 12.7998H42.8564C42.9805 12.7998 43.0861 12.7095 43.1056 12.5869L43.5279 9.90935C43.5471 9.78675 43.6528 9.6964 43.777 9.6964H45.3272C47.1385 9.6964 48.6758 8.37484 48.9565 6.58408C49.2399 4.77817 47.8292 3.20338 45.8296 3.19946H42.6077ZM44.2651 5.2349H45.5054C46.5265 5.2349 46.8591 5.83741 46.7539 6.50371C46.6488 7.17143 46.1325 7.66328 45.1446 7.66328H43.8822L44.2651 5.2349ZM52.4245 5.85469C51.994 5.85629 51.4986 5.94451 50.9424 6.17617C49.6666 6.70793 49.054 7.80691 48.7938 8.60811C48.7938 8.60811 47.9661 11.0525 49.837 12.3955C49.837 12.3955 51.5718 13.6883 53.5253 12.3158L53.4916 12.5302C53.4864 12.5635 53.4884 12.5975 53.4976 12.63C53.5068 12.6624 53.5229 12.6925 53.5448 12.7181C53.5667 12.7437 53.5939 12.7643 53.6246 12.7784C53.6552 12.7925 53.6885 12.7998 53.7222 12.7998H55.3406C55.4649 12.7998 55.5704 12.7095 55.5898 12.5869L56.5747 6.34297C56.58 6.30964 56.578 6.27555 56.5688 6.24307C56.5597 6.21059 56.5436 6.18048 56.5216 6.15482C56.4997 6.12916 56.4725 6.10855 56.4419 6.09443C56.4112 6.0803 56.3779 6.07299 56.3441 6.07299H54.7255C54.6013 6.07299 54.4956 6.16334 54.4764 6.28594L54.4234 6.62203C54.4234 6.62203 53.7163 5.84988 52.4245 5.85469ZM52.4775 7.82687C52.6633 7.82687 52.8333 7.85253 52.9859 7.90153C53.6842 8.12571 54.0802 8.79665 53.9656 9.5239C53.8243 10.4194 53.0899 11.0787 52.1481 11.0787C51.9624 11.0787 51.7924 11.0532 51.6397 11.0042C50.9415 10.78 50.5431 10.1091 50.6576 9.38187C50.799 8.4864 51.5356 7.82687 52.4775 7.82687Z" fill="#0070E0"/>
<path d="M34.0333 6.0744C33.905 6.0744 33.8137 6.19967 33.8529 6.32174L35.6275 11.8284L34.0229 14.4234C33.9451 14.5494 34.0356 14.7121 34.1837 14.7121H36.0801C36.1343 14.712 36.1877 14.698 36.2349 14.6714C36.2821 14.6447 36.3217 14.6063 36.3497 14.5599L41.3058 6.3613C41.3818 6.23531 41.291 6.07422 41.1438 6.07422H39.2475C39.1927 6.07427 39.1389 6.08857 39.0914 6.11572C39.0438 6.14287 39.0042 6.18194 38.9763 6.22908L37.0255 9.52263L36.0352 6.25349C36.003 6.1471 35.9048 6.07422 35.7937 6.07422L34.0333 6.0744Z" fill="#003087"/>
<path d="M58.4128 3.19922C58.2887 3.19922 58.1831 3.28957 58.1636 3.41217L56.7255 12.5296C56.7202 12.5629 56.7223 12.597 56.7314 12.6295C56.7406 12.662 56.7567 12.6921 56.7786 12.7177C56.8005 12.7434 56.8277 12.764 56.8584 12.7781C56.889 12.7923 56.9224 12.7996 56.9561 12.7996H58.6612C58.7852 12.7996 58.8909 12.7092 58.9103 12.5866L60.348 3.46884C60.3533 3.43556 60.3512 3.40155 60.3421 3.36914C60.3329 3.33673 60.3168 3.30668 60.2949 3.28107C60.2731 3.25545 60.2459 3.23488 60.2153 3.22075C60.1848 3.20662 60.1515 3.19927 60.1178 3.19922H58.4128Z" fill="#0070E0"/>
<path d="M5.08341 3.19922C4.97357 3.19931 4.86737 3.23857 4.78389 3.30994C4.7004 3.38131 4.64509 3.48011 4.62791 3.58859L3.87109 8.38868C3.90638 8.1645 4.09954 7.9993 4.32658 7.9993H6.54432C8.77631 7.9993 10.6703 6.37106 11.0163 4.16455C11.0421 3.99981 11.0567 3.83353 11.06 3.66682C10.4928 3.3694 9.82646 3.19922 9.09636 3.19922H5.08341Z" fill="#001C64"/>
<path d="M11.0597 3.66797C11.0564 3.83467 11.0418 4.00096 11.016 4.16569C10.67 6.3722 8.77584 8.00045 6.54402 8.00045H4.32628C4.09943 8.00045 3.90608 8.16546 3.8708 8.38982L3.17491 12.8007L2.73903 15.5678C2.73052 15.6213 2.73371 15.676 2.74838 15.7281C2.76305 15.7802 2.78886 15.8285 2.82402 15.8697C2.85917 15.9108 2.90284 15.9439 2.952 15.9665C3.00117 15.9892 3.05467 16.0009 3.1088 16.0009H5.51597C5.6258 16.0008 5.732 15.9615 5.81549 15.8902C5.89898 15.8188 5.95428 15.72 5.97145 15.6115L6.6055 11.59C6.62268 11.4815 6.67804 11.3826 6.7616 11.3112C6.84516 11.2398 6.95145 11.2006 7.06135 11.2006H8.4786C10.7106 11.2006 12.6045 9.57238 12.9506 7.36586C13.1963 5.79981 12.4076 4.37472 11.0597 3.66797Z" fill="#0070E0"/>
<path d="M2.34909 0C2.12224 0 1.92889 0.165016 1.89361 0.389018L0.00464901 12.3671C-0.0311698 12.5945 0.144543 12.8002 0.374782 12.8002H3.17596L3.87149 8.38927L4.62831 3.58919C4.64548 3.48071 4.70079 3.3819 4.78428 3.31053C4.86777 3.23917 4.97397 3.19991 5.0838 3.19982H9.09676C9.82703 3.19982 10.4932 3.37018 11.0604 3.66742C11.0992 1.65854 9.44158 0 7.16254 0H2.34909Z" fill="#003087"/>
</g>
<defs>
<clipPath id="clip0_1_967">
<rect width="60.3516" height="16" fill="white"/>
</clipPath>
</defs>
</svg>
