<svg width="90" height="23" viewBox="0 0 90 23" fill="none" xmlns="http://www.w3.org/2000/svg">
<path fill-rule="evenodd" clip-rule="evenodd" d="M76.6717 9.6022L75.3365 11.5965C73.3629 10.2752 71.2983 9.07916 69.1541 8.01976L70.2172 5.86807C72.456 6.97422 74.6115 8.22291 76.6717 9.6022ZM63.3282 3.01143L62.5569 5.28412C60.3182 4.52434 58.0143 3.90585 55.6558 3.43926L56.1215 1.08489C58.5843 1.57211 60.9903 2.21798 63.3282 3.01143ZM48.7291 0.120127L48.5743 2.51513C47.3927 2.43877 46.2008 2.4 44.9999 2.4C43.799 2.4 42.6071 2.43877 41.4255 2.51513L41.2707 0.120127C42.5038 0.0404404 43.7473 0 44.9999 0C46.2525 0 47.496 0.0404404 48.7291 0.120127ZM33.8783 1.08489L34.3441 3.43926C31.9855 3.90585 29.6816 4.52434 27.4429 5.28412L26.6716 3.01143C29.0095 2.21798 31.4155 1.57211 33.8783 1.08489ZM19.7826 5.86807L20.8457 8.01976C18.7015 9.07916 16.6369 10.2752 14.6633 11.5965L13.3281 9.6022C15.3884 8.22291 17.5438 6.97422 19.7826 5.86807Z" fill="#102224"/>
<circle cx="83.5" cy="16.5" r="6.5" fill="#E8E8E8"/>
<circle cx="6.5" cy="16.5" r="6.5" fill="#E8E8E8"/>
<circle cx="6.5" cy="16.5" r="3.5" fill="#102224"/>
<circle cx="83.5" cy="16.5" r="3.5" fill="#102224"/>
</svg>
