<svg width="26" height="26" viewBox="0 0 26 26" fill="none" xmlns="http://www.w3.org/2000/svg">
<path d="M12.8047 0.554688C16.0536 0.554687 19.1694 1.84531 21.4667 4.14263C23.7641 6.43995 25.0547 9.55579 25.0547 12.8047C25.0547 16.0536 23.7641 19.1694 21.4667 21.4667C19.1694 23.7641 16.0536 25.0547 12.8047 25.0547C9.55579 25.0547 6.43995 23.7641 4.14263 21.4667C1.84531 19.1694 0.554688 16.0536 0.554688 12.8047C0.554687 9.55579 1.84531 6.43995 4.14263 4.14263C6.43995 1.84531 9.55579 0.554688 12.8047 0.554688ZM11.2787 15.2214L8.55744 12.4984C8.45988 12.4009 8.34407 12.3235 8.2166 12.2707C8.08914 12.2179 7.95253 12.1907 7.81456 12.1907C7.6766 12.1907 7.53998 12.2179 7.41252 12.2707C7.28506 12.3235 7.16924 12.4009 7.07169 12.4984C6.87466 12.6955 6.76398 12.9627 6.76398 13.2413C6.76398 13.5199 6.87466 13.7872 7.07169 13.9842L10.5367 17.4492C10.634 17.5472 10.7497 17.6251 10.8772 17.6782C11.0047 17.7313 11.1414 17.7586 11.2796 17.7586C11.4177 17.7586 11.5544 17.7313 11.6819 17.6782C11.8094 17.6251 11.9252 17.5472 12.0224 17.4492L19.1974 10.2724C19.2963 10.1753 19.3749 10.0595 19.4288 9.93183C19.4827 9.80413 19.5108 9.66702 19.5115 9.52842C19.5121 9.38981 19.4853 9.25245 19.4326 9.12426C19.3799 8.99607 19.3023 8.87958 19.2044 8.78151C19.1064 8.68344 18.99 8.60574 18.8619 8.55288C18.7338 8.50003 18.5964 8.47306 18.4578 8.47354C18.3192 8.47402 18.1821 8.50194 18.0543 8.55569C17.9266 8.60943 17.8107 8.68794 17.7134 8.78669L11.2787 15.2214Z" fill="#31B15C"/>
</svg>
