<svg width="54" height="54" viewBox="0 0 54 54" fill="none" xmlns="http://www.w3.org/2000/svg">
<path d="M27.0764 0.388672C34.1544 0.388672 40.9424 3.20038 45.9473 8.20526C50.9522 13.2101 53.7639 19.9982 53.7639 27.0762C53.7639 34.1541 50.9522 40.9422 45.9473 45.9471C40.9424 50.952 34.1544 53.7637 27.0764 53.7637C19.9985 53.7637 13.2104 50.952 8.2055 45.9471C3.20063 40.9422 0.388916 34.1541 0.388916 27.0762C0.388916 19.9982 3.20063 13.2101 8.2055 8.20526C13.2104 3.20038 19.9985 0.388672 27.0764 0.388672ZM23.7519 32.3412L17.8235 26.409C17.6109 26.1965 17.3586 26.0279 17.0809 25.9128C16.8033 25.7978 16.5056 25.7386 16.2051 25.7386C15.9045 25.7386 15.6069 25.7978 15.3292 25.9128C15.0515 26.0279 14.7992 26.1965 14.5867 26.409C14.1574 26.8382 13.9163 27.4204 13.9163 28.0274C13.9163 28.6344 14.1574 29.2166 14.5867 29.6458L22.1354 37.1945C22.3473 37.4082 22.5995 37.5777 22.8772 37.6934C23.155 37.8091 23.4529 37.8687 23.7538 37.8687C24.0547 37.8687 24.3527 37.8091 24.6304 37.6934C24.9082 37.5777 25.1603 37.4082 25.3722 37.1945L41.0035 21.5595C41.2188 21.3478 41.3902 21.0956 41.5076 20.8174C41.625 20.5392 41.6862 20.2405 41.6876 19.9386C41.689 19.6366 41.6306 19.3374 41.5158 19.0581C41.401 18.7788 41.232 18.525 41.0186 18.3114C40.8052 18.0977 40.5516 17.9285 40.2725 17.8133C39.9933 17.6982 39.6941 17.6394 39.3922 17.6405C39.0902 17.6415 38.7915 17.7023 38.5131 17.8194C38.2348 17.9365 37.9824 18.1075 37.7705 18.3227L23.7519 32.3412Z" fill="#102224"/>
</svg>
